<svg version="1.2" baseProfile="tiny-ps" xmlns="http://www.w3.org/2000/svg" viewBox="0 0 154 37" width="154" height="37">
	<title>Strict</title>
	<style>
		tspan { white-space:pre }
		.shp0 { fill: #2d3950 } 
		.shp1 { fill: #15a4fa } 
	</style>
	<g id="Top">
		<g id="Logo">
			<g id="Shape">
				<path id="Black bottom" class="shp0" d="M0 19L15 19L15 34L0 34L0 19Z" />
				<path id="Black" class="shp0" d="M19 3L34 3L34 18L19 18L19 3Z" />
				<path id="Blue Bottom" class="shp1" d="M19 22L34 22L34 37L19 37L19 22Z" />
				<path id="Blue Top" class="shp1" d="M0 0L15 0L15 15L0 15L0 0Z" />
			</g>
			<path id="STRICT" fill="#2d3950" aria-label="STRICT"  d="M64.85 10.35L63.85 12.25Q63.67 12.57 63.46 12.72Q63.26 12.86 62.96 12.86Q62.65 12.86 62.27 12.63Q61.91 12.39 61.4 12.11Q60.89 11.82 60.2 11.6Q59.53 11.36 58.6 11.36Q57.76 11.36 57.13 11.57Q56.5 11.76 56.06 12.12Q55.64 12.48 55.43 12.99Q55.22 13.48 55.22 14.09Q55.22 14.85 55.64 15.36Q56.08 15.87 56.78 16.23Q57.49 16.59 58.39 16.88Q59.29 17.16 60.23 17.49Q61.18 17.8 62.08 18.24Q62.98 18.66 63.68 19.32Q64.39 19.96 64.81 20.91Q65.24 21.86 65.24 23.2Q65.24 24.68 64.73 25.96Q64.24 27.24 63.26 28.2Q62.3 29.14 60.91 29.7Q59.51 30.24 57.71 30.24Q56.68 30.24 55.67 30.05Q54.67 29.84 53.74 29.46Q52.82 29.09 52.01 28.56Q51.2 28.04 50.57 27.39L51.76 25.45Q51.91 25.25 52.15 25.11Q52.39 24.96 52.66 24.96Q53.03 24.96 53.47 25.27Q53.9 25.57 54.5 25.95Q55.1 26.32 55.9 26.64Q56.71 26.94 57.83 26.94Q59.56 26.94 60.5 26.13Q61.45 25.3 61.45 23.77Q61.45 22.92 61.01 22.38Q60.59 21.84 59.89 21.48Q59.18 21.11 58.28 20.85Q57.38 20.59 56.45 20.3Q55.52 20 54.62 19.58Q53.72 19.16 53.02 18.48Q52.31 17.8 51.88 16.8Q51.46 15.78 51.46 14.29Q51.46 13.11 51.92 11.98Q52.4 10.86 53.3 9.99Q54.2 9.12 55.52 8.6Q56.84 8.07 58.55 8.07Q60.47 8.07 62.09 8.67Q63.71 9.27 64.85 10.35ZM84.65 8.31L84.65 11.63L78.11 11.63L78.11 30L74.08 30L74.08 11.63L67.54 11.63L67.54 8.31L84.65 8.31ZM92.29 18.63L94.81 18.63Q95.95 18.63 96.79 18.34Q97.64 18.06 98.18 17.57Q98.74 17.05 99.01 16.37Q99.28 15.68 99.28 14.85Q99.28 13.2 98.18 12.32Q97.1 11.43 94.87 11.43L92.29 11.43L92.29 18.63ZM99.76 21.99L105.19 30L101.54 30Q100.51 30 100.04 29.19L95.48 22.25Q95.23 21.86 94.91 21.69Q94.61 21.52 94.01 21.52L92.29 21.52L92.29 30L88.25 30L88.25 8.31L94.87 8.31Q97.07 8.31 98.65 8.78Q100.24 9.23 101.24 10.05Q102.26 10.88 102.74 12.03Q103.22 13.17 103.22 14.55Q103.22 15.65 102.89 16.62Q102.58 17.59 101.96 18.39Q101.36 19.19 100.46 19.79Q99.58 20.38 98.44 20.73Q98.83 20.95 99.16 21.27Q99.49 21.57 99.76 21.99ZM112.34 8.31L112.34 30L108.29 30L108.29 8.31L112.34 8.31ZM132.83 24.88Q133.16 24.88 133.42 25.14L135.01 26.87Q133.69 28.5 131.75 29.37Q129.83 30.24 127.13 30.24Q124.72 30.24 122.78 29.41Q120.86 28.59 119.5 27.12Q118.13 25.65 117.4 23.61Q116.68 21.57 116.68 19.16Q116.68 16.71 117.46 14.69Q118.24 12.64 119.65 11.18Q121.07 9.71 123.04 8.89Q125 8.07 127.39 8.07Q129.76 8.07 131.59 8.85Q133.43 9.63 134.72 10.89L133.37 12.77Q133.25 12.95 133.06 13.08Q132.88 13.21 132.55 13.21Q132.32 13.21 132.08 13.09Q131.84 12.96 131.56 12.78Q131.27 12.59 130.9 12.36Q130.52 12.14 130.03 11.96Q129.53 11.76 128.87 11.64Q128.23 11.5 127.37 11.5Q125.92 11.5 124.7 12.03Q123.5 12.54 122.63 13.53Q121.76 14.51 121.28 15.93Q120.8 17.34 120.8 19.16Q120.8 20.98 121.31 22.41Q121.84 23.84 122.72 24.81Q123.61 25.79 124.81 26.31Q126.01 26.82 127.39 26.82Q128.21 26.82 128.87 26.73Q129.55 26.64 130.1 26.45Q130.67 26.25 131.17 25.95Q131.68 25.63 132.17 25.19Q132.32 25.05 132.49 24.98Q132.65 24.88 132.83 24.88ZM153.68 8.31L153.68 11.63L147.14 11.63L147.14 30L143.11 30L143.11 11.63L136.57 11.63L136.57 8.31L153.68 8.31Z" />
		</g>
	</g>
</svg>